<?xml version="1.0" encoding="UTF-8" standalone="no"?>
<svg
   xmlns:dc="http://purl.org/dc/elements/1.1/"
   xmlns:cc="http://creativecommons.org/ns#"
   xmlns:rdf="http://www.w3.org/1999/02/22-rdf-syntax-ns#"
   xmlns:svg="http://www.w3.org/2000/svg"
   xmlns="http://www.w3.org/2000/svg"
   xmlns:sodipodi="http://sodipodi.sourceforge.net/DTD/sodipodi-0.dtd"
   xmlns:inkscape="http://www.inkscape.org/namespaces/inkscape"
   width="277.51944mm"
   height="67.46875mm"
   viewBox="0 0 277.51944 67.46875"
   version="1.1"
   id="svg8"
   inkscape:export-filename="/home/hope/Ãrea de Trabalho/bb logo/logo.png"
   inkscape:export-xdpi="95"
   inkscape:export-ydpi="95"
   inkscape:version="1.0.2 (e86c870879, 2021-01-15)"
   sodipodi:docname="logo2.svg">
  <defs
     id="defs2">
    <rect
       x="151.54747"
       y="-2.0112238"
       width="43.949425"
       height="25.461647"
       id="rect23" />
    <rect
       x="-12.247865"
       y="-16.099072"
       width="311.44046"
       height="54.874771"
       id="rect17" />
  </defs>
  <sodipodi:namedview
     id="base"
     pagecolor="#000000"
     bordercolor="#666666"
     borderopacity="1.0"
     inkscape:pageopacity="1"
     inkscape:pageshadow="2"
     inkscape:zoom="0.35"
     inkscape:cx="793.4147"
     inkscape:cy="137.35713"
     inkscape:document-units="mm"
     inkscape:current-layer="layer1"
     showgrid="false"
     inkscape:showpageshadow="false"
     showborder="true"
     inkscape:window-width="1366"
     inkscape:window-height="704"
     inkscape:window-x="0"
     inkscape:window-y="27"
     inkscape:window-maximized="1"
     inkscape:document-rotation="0"
     inkscape:pagecheckerboard="true"
     borderlayer="false"
     fit-margin-top="0"
     fit-margin-left="0"
     fit-margin-right="0"
     fit-margin-bottom="0" />
  <metadata
     id="metadata5">
    <rdf:RDF>
      <cc:Work
         rdf:about="">
        <dc:format>image/svg+xml</dc:format>
        <dc:type
           rdf:resource="http://purl.org/dc/dcmitype/StillImage" />
        <dc:title></dc:title>
      </cc:Work>
    </rdf:RDF>
  </metadata>
  <g
     inkscape:label="Camada 1"
     inkscape:groupmode="layer"
     id="layer1"
     transform="translate(-159.2652,-54.096307)">
    <g
       id="g35">
      <g
         style="fill:#d89c17;fill-opacity:1"
         id="g4535"
         transform="matrix(0.26458333,0,0,0.26458333,128.08217,50.505533)">
        <path
           id="path4518"
           style="fill:#d89c17;fill-opacity:1;stroke:#66606b;stroke-width:10;stroke-linecap:round;stroke-linejoin:round"
           d=""
           inkscape:connector-curvature="0" />
        <path
           id="path4520"
           style="fill:#d89c17;fill-opacity:1;stroke:#e47464;stroke-width:10;stroke-linecap:round;stroke-linejoin:round"
           d=""
           inkscape:connector-curvature="0" />
        <path
           id="path4522"
           style="fill:#d89c17;fill-opacity:1;stroke:none;stroke-width:1;stroke-linecap:round;stroke-linejoin:round"
           d="m 162.85714,268.57143 v 0 a 30,90 0 0 0 30,-90 30,15 0 0 0 -30,15 v 75 m 0,-75 a 30,15 0 0 0 30,-15 30,15 0 0 1 -30,15 m 0,-30 h 15 a 60,105 0 0 0 60,105 v 0 -75 a 30,15 0 0 0 -30,-15 v -15 h 60 v 30 a 15,15 0 0 0 15,15 v -45 h 30 v 0 -30 l -150,15 v 15 m 150,15 a 15,30 0 0 0 -15,30 v 60 a 15,15 0 0 0 15,-15 v -75 m 0,-45 v 0 l -150,15 v 0 -30 l 120,-15 30,30 m -30,-30 v 0 l 15,-45.000001 h -90 a 45,60 0 0 0 -45,60.000001"
           inkscape:connector-curvature="0" />
      </g>
      <g
         style="fill:#ad0a0b;fill-opacity:1;stroke:none;stroke-opacity:1"
         id="g4554"
         transform="matrix(0.26458333,0,0,0.26458333,67.983956,38.221307)">
        <path
           id="path4537"
           style="fill:#ad0a0b;fill-opacity:1;stroke:none;stroke-width:10;stroke-linecap:round;stroke-linejoin:round;stroke-opacity:1"
           d=""
           inkscape:connector-curvature="0" />
        <path
           id="path4539"
           style="fill:#ad0a0b;fill-opacity:1;stroke:none;stroke-width:10;stroke-linecap:round;stroke-linejoin:round;stroke-opacity:1"
           d=""
           inkscape:connector-curvature="0" />
        <path
           id="path4541"
           style="fill:#ad0a0b;fill-opacity:1;stroke:none;stroke-width:1;stroke-linecap:round;stroke-linejoin:round;stroke-opacity:1"
           d="m 345,195 v 0 h 45 v -30 a 45,60 0 0 1 45,-60 h 75 v 0 l 15,-45 v 0 h -90 a 90,135 0 0 0 -90,135"
           inkscape:connector-curvature="0" />
      </g>
    </g>
    <text
       xml:space="preserve"
       id="text15"
       style="font-style:normal;font-weight:normal;font-size:50.8px;line-height:1.15;font-family:sans-serif;white-space:pre;shape-inside:url(#rect17);fill:#000000;fill-opacity:1;stroke:none;"
       transform="matrix(0.71130089,0,0,0.71130089,234.46163,81.846445)"><tspan
         x="-12.248047"
         y="26.371681"><tspan
           style="font-style:normal;font-variant:normal;font-weight:bold;font-stretch:normal;font-size:50.8px;font-family:'Droid Sans';-inkscape-font-specification:'Droid Sans Bold';fill:#ffffff">BATTLEBUFF</tspan></tspan></text>
    <text
       xml:space="preserve"
       id="text21"
       style="font-style:normal;font-weight:normal;font-size:10.5833px;line-height:1.25;font-family:sans-serif;white-space:pre;shape-inside:url(#rect23);fill:#000000;fill-opacity:1;stroke:none;" />
  </g>
</svg>
